<?xml version="1.0" encoding="utf-8"?>
<!-- Generator: Adobe Illustrator 22.1.0, SVG Export Plug-In . SVG Version: 6.00 Build 0)  -->
<svg version="1.1" id="Layer_1" xmlns="http://www.w3.org/2000/svg" xmlns:xlink="http://www.w3.org/1999/xlink" x="0px" y="0px"
	 viewBox="0 0 1080 35" style="enable-background:new 0 0 1080 35;" xml:space="preserve">
<style type="text/css">
	.st0{fill:#B3874D;}
</style>
<g>
	<rect x="549.8" y="17" class="st0" width="530.2" height="1"/>
	<rect y="17" class="st0" width="530" height="1"/>
	<path class="st0" d="M548.1,24.7h-1.4c-1,0-1.4-0.4-1.4-1.3v-5.4c0.1-0.7,0.6-1.3,1.4-1.3c0.8,0,1.4,0.6,1.4,1.4V24.7z M541.5,23.4
		c0,0.8-0.6,1.4-1.4,1.4s-1.4-0.6-1.4-1.4V10.6c0-0.8,0.6-1.4,1.4-1.4s1.4,0.6,1.4,1.4V23.4z M550.7,31.4V17.7
		c0-1.8-1.4-3.2-3.2-3.2h-1.6c-0.7,0-1.3,0.3-1.8,0.6v-5c0-1.7-1.4-3.1-3.1-3.2h-1.6c-1.1,0-2.1,0.6-2.7,1.4
		C536.1,7.5,535.2,7,534,7h-2.2V3.4c0-0.3,0.2-0.4,0.4-0.4h2.9c0.8,0,1.2-0.4,1.4-0.7c0.1-0.2,0.5-1.2,0.8-1.9h-6.8
		c0,0-1.4-0.1-1.4,1.7v6.1c0,0.7,0.6,1.3,1.3,1.3h2.6c0.8,0,1.4,0.6,1.4,1.4v5.9c0,0.8-0.6,1.4-1.4,1.4c-0.8,0-1.4-0.6-1.4-1.4V12
		c-0.6,0.3-1.7,0.8-1.9,0.8c-0.3,0.2-0.7,0.6-0.7,1.4v3.1c0,1.7,1.4,3.2,3.2,3.2h1.6c0.8,0,1.5-0.3,2-0.8v4.2c0,1.7,1.4,3.2,3.2,3.2
		h1.6c1,0,1.9-0.5,2.4-1.2c0.5,0.7,1.4,1.3,3,1.3h1.7v3.9c0,0.8-0.6,1.4-1.4,1.4c-0.8,0-1.4-0.6-1.4-1.4v-2.7
		c-0.6,0.3-1.7,0.8-1.9,0.9c-0.3,0.2-0.7,0.6-0.7,1.4v0.8c0,1.7,1.4,3.1,3.1,3.2h1.6C549.3,34.6,550.7,33.2,550.7,31.4"/>
</g>
</svg>
