<?xml version="1.0" encoding="utf-8"?>
<!-- Generator: Adobe Illustrator 22.1.0, SVG Export Plug-In . SVG Version: 6.00 Build 0)  -->
<svg version="1.1" id="Layer_1" xmlns="http://www.w3.org/2000/svg" xmlns:xlink="http://www.w3.org/1999/xlink" x="0px" y="0px"
	 viewBox="0 0 160 256" style="enable-background:new 0 0 160 256;" xml:space="preserve">
<style type="text/css">
	.st0{clip-path:url(#SVGID_2_);fill:url(#SVGID_3_);}
</style>
<g>
	<defs>
		<path id="SVGID_1_" d="M120.2,172.1v-40c0.5-5.4,4.8-9.4,10.2-9.4c5.6,0,10.2,4.6,10.2,10.5v48.8h-10.2
			C122.6,182.1,120.2,179.1,120.2,172.1 M70.6,172.1V76.8c0-5.6,4.6-10.5,10.2-10.5c5.6,0,10.2,4.8,10.2,10.5v95.3
			c0,5.6-4.6,10.2-10.2,10.2C75.2,182.3,70.6,177.7,70.6,172.1 M10.1,0.4c-1.4,0-10,0.6-10,12.9v45.6c0.3,5.4,4.6,9.7,9.9,9.9h19.6
			c5.9,0,10.5,4.6,10.5,10.2V123c0,5.6-4.6,10.2-10.5,10.2c-5.6,0-10.2-4.6-10.2-10.2V86.7c-4.8,2.2-12.4,5.6-14,6.2
			c-2.4,1.3-5.4,4.3-5.4,10.5v23.1c0.3,12.9,10.7,23.6,23.9,23.6h12.1c5.8-0.2,11.1-2.5,15.2-6v31.4c0,12.9,10.7,23.6,23.9,23.6
			h12.1c7.3-0.3,13.9-3.9,18.1-9.3c3.8,5.5,10.5,9.4,22.3,9.4h12.9v29c0,5.9-4.6,10.5-10.2,10.5c-5.9,0-10.2-4.6-10.2-10.5v-19.9
			c-4.8,2.1-12.4,5.9-14,6.7c-2.4,1.3-5.4,4.3-5.4,10.5v6.2c0,12.9,10.5,23.4,23.4,23.9H136c13.2,0,23.9-10.7,23.9-23.9v-102
			c0-13.2-10.7-23.9-23.9-23.9h-12.1c-5.1,0.1-9.8,1.9-13.6,4.8V73.3c0-12.9-10.2-23.4-23.1-23.9H75.2c-8.2,0-15.5,4.2-19.8,10.6
			c-4.3-6.4-11.5-10.6-19.8-10.6H19.4V22.9c0-1.9,1.3-3.2,3.2-3.2h21.5c6.2,0,9.1-3,10.5-5.4c0.8-1.6,4-9.1,6.2-14H10.3
			C10.3,0.4,10.2,0.4,10.1,0.4L10.1,0.4z"/>
	</defs>
	<clipPath id="SVGID_2_">
		<use xlink:href="#SVGID_1_"  style="overflow:visible;"/>
	</clipPath>
	
		<linearGradient id="SVGID_3_" gradientUnits="userSpaceOnUse" x1="1.0012" y1="257.0055" x2="2.001" y2="257.0055" gradientTransform="matrix(207.5877 -207.5877 -207.5877 -207.5877 53119.582 53790.7969)">
		<stop  offset="0" style="stop-color:#C99446"/>
		<stop  offset="0.554" style="stop-color:#ECDBC3"/>
		<stop  offset="0.9938" style="stop-color:#C8954B"/>
		<stop  offset="1" style="stop-color:#C8954B"/>
	</linearGradient>
	<polygon class="st0" points="-127.5,128 80,-79.5 287.5,128 80,335.5 	"/>
</g>
</svg>
