<?xml version="1.0" encoding="utf-8"?>
<!-- Generator: Adobe Illustrator 22.1.0, SVG Export Plug-In . SVG Version: 6.00 Build 0)  -->
<svg version="1.1" id="Layer_1" xmlns="http://www.w3.org/2000/svg" xmlns:xlink="http://www.w3.org/1999/xlink" x="0px" y="0px"
	 viewBox="0 0 120 30" style="enable-background:new 0 0 120 30;" xml:space="preserve">
<style type="text/css">
	.st0{fill:#FFFFFF;}
</style>
<g>
	<path class="st0" d="M7.2,14.7c0-4.1,2.8-7.1,7.1-7.7c2.1-0.3,13.4-0.1,13.5-0.1h0.2V0.1h-0.2H14.9c-1.4,0.1-3.8,0.2-6.2,1.2
		C6.4,2.4,4.4,4,2.9,6C1,8.6,0,11.7,0,14.9c0,1,0.1,2,0.2,3c0.9,4.5,3.9,8.3,8.1,10.3c1.4,0.6,3.6,1.4,8.1,1.6l2.4,0.1h8.9h0.2v-7.2
		h-0.2c-0.1,0-9.9,0.2-13.3-0.1C9.1,22,7.2,18,7.2,14.7 M52.2,8.9c0,1.2-0.9,2.3-2.1,2.5H39.8V6.5h10.4l0,0l0,0
		C51.5,6.8,52.2,7.7,52.2,8.9 M39.8,17.9h10.1l0,0l0,0c1.3,0.1,2.2,1.2,2.2,2.4c0,1.4-1.1,2.5-2.5,2.5h-9.9v-4.9H39.8z M54.6,14.5
		c3.8-1.3,4.5-4.4,4.5-7c0-4-2.8-7.4-11.1-7.4H32.6v29.8H48c8.3,0,11.4-4.3,11.4-8.6C59.2,16.1,54.6,14.5,54.6,14.5 M82.7,9.3
		c-0.1,1-1.1,2-2.3,2H70.2V6.5h10.2c1.2,0,2.2,0.9,2.3,2.1V9.3z M89.3,7.9c0-6.4-5.5-7.8-10.7-7.8H62.8v29.8H70v-12h8
		c2.3,0,4.1,1.9,4.1,4.2v7.8h7.1v-9.6c0-4.5-4.3-5.8-4.3-5.8S89.3,13.2,89.3,7.9 M120,6.6V0.1H93.8v29.8H120v-6.8h-18.8v-5.2h17
		v-6.5h-17V6.6H120z"/>
</g>
</svg>
