<?xml version="1.0" encoding="utf-8"?>
<!-- Generator: Adobe Illustrator 22.1.0, SVG Export Plug-In . SVG Version: 6.00 Build 0)  -->
<svg version="1.1" id="Layer_1" xmlns="http://www.w3.org/2000/svg" xmlns:xlink="http://www.w3.org/1999/xlink" x="0px" y="0px"
	 viewBox="0 0 337 26" style="enable-background:new 0 0 337 26;" xml:space="preserve">
<style type="text/css">
	.st0{clip-path:url(#SVGID_2_);fill:url(#SVGID_3_);}
</style>
<g>
	<defs>
		<path id="SVGID_1_" d="M22.5,0.3l-9.2,18.4L4,0.3H0.4v25.3h2.8V4.6L12.4,23h1.7l9.2-18.4l0,21.1h2.7V0.3H22.5z M45.1,0.3v25.3
			h17.7V23H48v-8.8h12.8v-2.6H48V3h14.3V0.3H45.1z M81.8,0.3v25.3h14V23H84.7V0.3H81.8z M117.8,14h7.6c4.1,0,6.5,1.6,6.5,4.5
			c0,2.9-2.4,4.6-6.5,4.6h-7.6V14z M117.8,3h7.6c3.4,0,5.4,1.5,5.4,4.1c0,2.7-2,4.2-5.4,4.2h-7.6V3z M114.9,0.3v25.3h10.9
			c5.7,0,9.1-2.6,9.1-6.9c0-3.5-2.1-5.9-5.8-6.4c3-0.6,4.7-2.8,4.7-5.7c0-4-3.1-6.3-8.2-6.3H114.9z M217.9,0.3v14.9
			c0,5-2.9,7.9-7.7,7.9c-4.8,0-7.8-2.9-7.8-7.9V0.3h-2.9v14.9c0,6.6,4,10.5,10.7,10.5c6.6,0,10.6-3.9,10.6-10.5V0.3H217.9z M242.7,3
			h6.7c4.6,0,7.2,2,7.2,5.9c0,4-2.6,6-7.2,6h-6.7V3z M239.8,0.3v25.3h2.9v-8h6.7c0.6,0,1.1,0,1.6-0.1l5.3,8.1h3.3l-6-8.7
			c3.7-1.2,5.7-4,5.7-8.2c0-5.4-3.7-8.5-10-8.5H239.8z M297,0.3v20.6L281.8,0.3h-3v25.3h2.9V5.1l15.2,20.6h3V0.3H297z M318.9,0.3
			v25.3h17.7V23h-14.8v-8.8h12.8v-2.6h-12.8V3h14.3V0.3H318.9z M156.9,13c0-5.6,4.7-10.1,10.4-10.1c5.6,0,10.3,4.5,10.3,10.1
			c0,5.6-4.6,10.1-10.3,10.1C161.6,23.1,156.9,18.6,156.9,13 M167.2,0.2c-7.4,0-13.3,5.6-13.3,12.7c0,7.1,5.9,12.8,13.3,12.8
			c7.4,0,13.2-5.6,13.2-12.8C180.5,5.8,174.6,0.2,167.2,0.2z"/>
	</defs>
	<clipPath id="SVGID_2_">
		<use xlink:href="#SVGID_1_"  style="overflow:visible;"/>
	</clipPath>
	
		<linearGradient id="SVGID_3_" gradientUnits="userSpaceOnUse" x1="89.0301" y1="141.9185" x2="90.0301" y2="141.9185" gradientTransform="matrix(460.424 -460.424 -460.424 -460.424 24149.4668 106717.3828)">
		<stop  offset="0" style="stop-color:#C99446"/>
		<stop  offset="0.554" style="stop-color:#ECDBC3"/>
		<stop  offset="0.9938" style="stop-color:#C8954B"/>
		<stop  offset="1" style="stop-color:#C8954B"/>
	</linearGradient>
	<polygon class="st0" points="-12.3,13 168.5,-167.8 349.3,13 168.5,193.8 	"/>
</g>
</svg>
