<?xml version="1.0" encoding="utf-8"?>
<!-- Generator: Adobe Illustrator 22.1.0, SVG Export Plug-In . SVG Version: 6.00 Build 0)  -->
<svg version="1.1" id="Layer_1" xmlns="http://www.w3.org/2000/svg" xmlns:xlink="http://www.w3.org/1999/xlink" x="0px" y="0px"
	 viewBox="0 0 331 26" style="enable-background:new 0 0 331 26;" xml:space="preserve">
<style type="text/css">
	.st0{clip-path:url(#SVGID_2_);fill:url(#SVGID_3_);}
</style>
<g>
	<defs>
		<path id="SVGID_1_" d="M32.2,0.3V3h8.2v22.6h2.9V3h8.3V0.3H32.2z M103.9,0.3L90.3,15.1V0.3h-2.9v25.3h2.9V19l4.9-5.4l9.3,12h3.5
			L97.3,11.4l10.1-11H103.9z M123.5,25.7h2.9V0.3h-2.9V25.7z M144.9,0.3v25.3h14V23h-11.1V0.3H144.9z M177.3,3h7.3
			c5.7,0,10.2,4.3,10.2,10c0,5.7-4.4,9.9-10.1,9.9h-7.4V3z M174.4,0.3v25.3h10.1c7.4,0,13.1-5.5,13.1-12.7c0-7.2-5.6-12.7-13-12.7
			H174.4z M222.3,3.5l5.8,13h-11.4L222.3,3.5z M220.9,0.3l-11.4,25.3h3.1l2.8-6.5h13.8l2.9,6.5h3.1L223.9,0.3H220.9z M273.6,3h6.7
			c4.6,0,7.2,2,7.2,5.9c0,4-2.6,6-7.2,6h-6.7V3z M270.7,0.3v25.3h2.9v-8h6.7c0.6,0,1.1,0,1.6-0.1l5.3,8.1h3.3l-6-8.6
			c3.7-1.2,5.7-4,5.7-8.2c0-5.4-3.7-8.5-10-8.5H270.7z M310.6,3h7.3c5.7,0,10.2,4.3,10.2,10c0,5.7-4.4,9.9-10.1,9.9h-7.4V3z
			 M307.7,0.3v25.3h10.1c7.4,0,13.1-5.5,13.1-12.7c0-7.2-5.6-12.7-13-12.7H307.7z M10.2,0.2C5,0.2,1.5,2.8,1.5,6.7
			c0,9.1,14.2,5.5,14.2,12.3c0,2.5-2.3,3.9-5.9,3.9c-2.9,0-6.1-1.3-8.4-3.5L0,21.9c2.4,2.3,6,3.9,9.7,3.9c5.4,0,9.1-2.7,9.1-6.9
			c0-9.2-14.2-5.7-14.2-12.3c0-2.2,2.1-3.5,5.4-3.5c2,0,4.7,0.6,7,2.1l1.2-2.6C16.2,1.2,13.2,0.2,10.2,0.2z"/>
	</defs>
	<clipPath id="SVGID_2_">
		<use xlink:href="#SVGID_1_"  style="overflow:visible;"/>
	</clipPath>
	
		<linearGradient id="SVGID_3_" gradientUnits="userSpaceOnUse" x1="1.107700e-03" y1="27.308" x2="1.0011" y2="27.308" gradientTransform="matrix(460.424 -460.424 -460.424 -460.424 12649.1406 12675.8955)">
		<stop  offset="0" style="stop-color:#C99446"/>
		<stop  offset="0.554" style="stop-color:#ECDBC3"/>
		<stop  offset="0.9938" style="stop-color:#C8954B"/>
		<stop  offset="1" style="stop-color:#C8954B"/>
	</linearGradient>
	<polygon class="st0" points="-12.7,13 165.5,-165.2 343.7,13 165.5,191.2 	"/>
</g>
</svg>
